0
SECTION
2
HEADER
9
$INSUNITS
70
4
9
$ACADVER
1
AC1014
9
$HANDSEED
5
FFFF
0
ENDSEC
0
SECTION
2
TABLES
0
TABLE
2
VPORT
5
8
100
AcDbSymbolTable
0
ENDTAB
0
TABLE
2
LTYPE
5
5
100
AcDbSymbolTable
0
LTYPE
5
14
100
AcDbSymbolTableRecord
100
AcDbLinetypeTableRecord
2
BYBLOCK
70
0
0
LTYPE
5
15
100
AcDbSymbolTableRecord
100
AcDbLinetypeTableRecord
2
BYLAYER
70
0
0
ENDTAB
0
TABLE
2
LAYER
5
2
100
AcDbSymbolTable
70
2
0
LAYER
5
50
100
AcDbSymbolTableRecord
100
AcDbLayerTableRecord
2
0
70
0
6
CONTINUOUS
0
ENDTAB
0
TABLE
2
STYLE
5
3
100
AcDbSymbolTable
70
1
0
STYLE
5
11
100
AcDbSymbolTableRecord
100
AcDbTextStyleTableRecord
2
STANDARD
70
0
0
ENDTAB
0
TABLE
2
VIEW
5
6
100
AcDbSymbolTable
70
0
0
ENDTAB
0
TABLE
2
UCS
5
7
100
AcDbSymbolTable
70
0
0
ENDTAB
0
TABLE
2
APPID
5
9
100
AcDbSymbolTable
70
2
0
APPID
5
12
100
AcDbSymbolTableRecord
100
AcDbRegAppTableRecord
2
ACAD
70
0
0
ENDTAB
0
TABLE
2
DIMSTYLE
5
A
100
AcDbSymbolTable
70
1
0
ENDTAB
0
TABLE
2
BLOCK_RECORD
5
1
100
AcDbSymbolTable
70
1
0
BLOCK_RECORD
5
1F
100
AcDbSymbolTableRecord
100
AcDbBlockTableRecord
2
*MODEL_SPACE
0
BLOCK_RECORD
5
1B
100
AcDbSymbolTableRecord
100
AcDbBlockTableRecord
2
*PAPER_SPACE
0
ENDTAB
0
ENDSEC
0
SECTION
2
BLOCKS
0
BLOCK
5
20
100
AcDbEntity
100
AcDbBlockBegin
2
*MODEL_SPACE
0
ENDBLK
5
21
100
AcDbEntity
100
AcDbBlockEnd
0
BLOCK
5
1C
100
AcDbEntity
100
AcDbBlockBegin
2
*PAPER_SPACE
0
ENDBLK
5
1D
100
AcDbEntity
100
AcDbBlockEnd
0
ENDSEC
0
SECTION
2
ENTITIES
0
LWPOLYLINE
5
100
100
AcDbEntity
8
0
100
AcDbPolyline
90
8
70
1
43
0.0
10
59.000000000000014
20
0
10
2.9999999999999991
20
5.5511151231257827e-16
42
-0.41421356237309537
10
5.5511151231257827e-16
20
2.9999999999999982
10
2.2204460492503131e-15
20
57
42
-0.41421356237309481
10
2.9999999999999982
20
60
10
59
20
60.000000000000007
42
-0.41421356237309936
10
62
20
57
10
62
20
3.0000000000000004
42
-0.41421356237309265
0
LWPOLYLINE
5
101
100
AcDbEntity
8
0
100
AcDbPolyline
90
8
70
1
43
0.0
10
5.0000000000000009
20
57
10
4
20
57
42
0.41421356237309664
10
2.9999999999999982
20
56.000000000000007
10
3
20
4
42
0.41421356237309492
10
4
20
3.0000000000000004
10
5.0000000000000009
20
3.0000000000000004
42
0.41421356237309342
10
6.0000000000000009
20
3.9999999999999947
10
6.0000000000000036
20
56.000000000000007
42
0.41421356237309664
0
LWPOLYLINE
5
102
100
AcDbEntity
8
0
100
AcDbPolyline
90
8
70
1
43
0.0
10
58
20
57
10
56.999999999999993
20
57
42
0.41421356237309503
10
56
20
56.000000000000007
10
56
20
4
42
0.41421356237309664
10
56.999999999999993
20
3.0000000000000004
10
58
20
2.9999999999999973
42
0.41421356237309537
10
58.999999999999993
20
3.9999999999999947
10
58.999999999999993
20
56.000000000000007
42
0.41421356237309503
0
CIRCLE
5
103
100
AcDbEntity
8
0
100
AcDbCircle
10
14.000000000000002
20
54
30
0
40
1.4999999999999989
210
0
220
0
230
1
0
CIRCLE
5
104
100
AcDbEntity
8
0
100
AcDbCircle
10
47.999999999999986
20
6.0000000000000009
30
0
40
1.5000000000000022
210
0
220
0
230
1
0
CIRCLE
5
105
100
AcDbEntity
8
0
100
AcDbCircle
10
14.000000000000002
20
54
30
0
40
3.0000000000000031
210
0
220
0
230
1
0
CIRCLE
5
106
100
AcDbEntity
8
0
100
AcDbCircle
10
47.999999999999986
20
6.0000000000000009
30
0
40
3.0000000000000004
210
0
220
0
230
1
0
LWPOLYLINE
5
107
100
AcDbEntity
8
0
100
AcDbPolyline
90
12
70
1
43
0.0
10
19
20
5.9999999999999973
10
38.712912189496635
20
6.0000000000000009
42
0.35336647677466282
10
40.668088570655236
20
7.5789473684210513
42
-0.29475986675295451
10
46.421052631578938
20
13.331911429344757
42
0.35336647677466243
10
47.999999999999986
20
15.287087810503346
10
47.999999999999986
20
49
42
0.41421356237309503
10
42.999999999999986
20
54
10
23.287087810503344
20
54
42
0.35336647677466149
10
21.33191142934475
20
52.421052631578952
42
-0.29475986675295451
10
15.578947368421048
20
46.668088570655257
42
0.35336647677466276
10
14.000000000000002
20
44.712912189496649
10
14
20
10.999999999999996
42
0.41421356237309581
0
ENDSEC
0
SECTION
2
OBJECTS
0
DICTIONARY
5
C
100
AcDbDictionary
3
ACAD_GROUP
350
D
3
ACAD_MLINESTYLE
350
17
0
DICTIONARY
5
D
100
AcDbDictionary
0
DICTIONARY
5
1A
330
C
100
AcDbDictionary
0
DICTIONARY
5
17
100
AcDbDictionary
0
ENDSEC
0
EOF
