0
SECTION
2
HEADER
9
$INSUNITS
70
4
9
$ACADVER
1
AC1014
9
$HANDSEED
5
FFFF
0
ENDSEC
0
SECTION
2
TABLES
0
TABLE
2
VPORT
5
8
100
AcDbSymbolTable
0
ENDTAB
0
TABLE
2
LTYPE
5
5
100
AcDbSymbolTable
0
LTYPE
5
14
100
AcDbSymbolTableRecord
100
AcDbLinetypeTableRecord
2
BYBLOCK
70
0
0
LTYPE
5
15
100
AcDbSymbolTableRecord
100
AcDbLinetypeTableRecord
2
BYLAYER
70
0
0
ENDTAB
0
TABLE
2
LAYER
5
2
100
AcDbSymbolTable
70
2
0
LAYER
5
50
100
AcDbSymbolTableRecord
100
AcDbLayerTableRecord
2
0
70
0
6
CONTINUOUS
0
ENDTAB
0
TABLE
2
STYLE
5
3
100
AcDbSymbolTable
70
1
0
STYLE
5
11
100
AcDbSymbolTableRecord
100
AcDbTextStyleTableRecord
2
STANDARD
70
0
0
ENDTAB
0
TABLE
2
VIEW
5
6
100
AcDbSymbolTable
70
0
0
ENDTAB
0
TABLE
2
UCS
5
7
100
AcDbSymbolTable
70
0
0
ENDTAB
0
TABLE
2
APPID
5
9
100
AcDbSymbolTable
70
2
0
APPID
5
12
100
AcDbSymbolTableRecord
100
AcDbRegAppTableRecord
2
ACAD
70
0
0
ENDTAB
0
TABLE
2
DIMSTYLE
5
A
100
AcDbSymbolTable
70
1
0
ENDTAB
0
TABLE
2
BLOCK_RECORD
5
1
100
AcDbSymbolTable
70
1
0
BLOCK_RECORD
5
1F
100
AcDbSymbolTableRecord
100
AcDbBlockTableRecord
2
*MODEL_SPACE
0
BLOCK_RECORD
5
1B
100
AcDbSymbolTableRecord
100
AcDbBlockTableRecord
2
*PAPER_SPACE
0
ENDTAB
0
ENDSEC
0
SECTION
2
BLOCKS
0
BLOCK
5
20
100
AcDbEntity
100
AcDbBlockBegin
2
*MODEL_SPACE
0
ENDBLK
5
21
100
AcDbEntity
100
AcDbBlockEnd
0
BLOCK
5
1C
100
AcDbEntity
100
AcDbBlockBegin
2
*PAPER_SPACE
0
ENDBLK
5
1D
100
AcDbEntity
100
AcDbBlockEnd
0
ENDSEC
0
SECTION
2
ENTITIES
0
LWPOLYLINE
5
100
100
AcDbEntity
8
0
100
AcDbPolyline
90
8
70
1
43
0.0
10
42.5
20
22
42
-0.41421356237309681
10
39.500000000000014
20
19.000000000000014
10
10.5
20
19.000000000000014
42
-0.41421356237309531
10
7.5
20
22.000000000000011
10
7.5000000000000044
20
43.000000000000007
42
-0.41421356237309309
10
10.500000000000004
20
46.000000000000007
10
39.500000000000021
20
46
42
-0.4142135623730942
10
42.5
20
43.000000000000036
0
LWPOLYLINE
5
101
100
AcDbEntity
8
0
100
AcDbPolyline
90
4
70
1
43
0.0
10
33.500000000000007
20
5.0000000000000018
42
-0.41421356237309342
10
31.500000000000014
20
7.0000000000000018
42
-0.41421356237309492
10
33.500000000000007
20
9
42
-0.41421356237309392
10
35.500000000000007
20
7.0000000000000018
42
-0.41421356237309731
0
LWPOLYLINE
5
102
100
AcDbEntity
8
0
100
AcDbPolyline
90
4
70
1
43
0.0
10
48.000000000000007
20
1.999999999999996
10
1.999999999999996
20
2.0000000000000018
10
2.0000000000000018
20
63.000000000000007
10
48.000000000000007
20
63.000000000000007
0
LWPOLYLINE
5
103
100
AcDbEntity
8
0
100
AcDbPolyline
90
4
70
1
43
0.0
10
23.000000000000004
20
7.0000000000000018
42
-0.41421356237309404
10
25
20
9.0000000000000018
42
-0.4142135623730947
10
27
20
7.0000000000000018
42
-0.41421356237309492
10
25
20
5.0000000000000009
42
-0.41421356237309553
0
LWPOLYLINE
5
104
100
AcDbEntity
8
0
100
AcDbPolyline
90
4
70
1
43
0.0
10
18.500000000000014
20
7.0000000000000018
42
-0.4142135623730957
10
16.500000000000014
20
5
42
-0.4142135623730957
10
14.500000000000011
20
7.0000000000000018
42
-0.41421356237309537
10
16.500000000000014
20
9
42
-0.41421356237309426
0
LWPOLYLINE
5
105
100
AcDbEntity
8
0
100
AcDbPolyline
90
4
70
1
43
0.0
10
20.500000000000011
20
7.0000000000000018
42
-0.41421356237309503
10
16.500000000000014
20
3.0000000000000027
42
-0.41421356237309503
10
12.500000000000007
20
7.0000000000000009
42
-0.41421356237309492
10
16.500000000000014
20
11
42
-0.41421356237309481
0
LWPOLYLINE
5
106
100
AcDbEntity
8
0
100
AcDbPolyline
90
4
70
1
43
0.0
10
29.000000000000014
20
7.0000000000000027
42
-0.41421356237309553
10
25.000000000000004
20
2.999999999999996
42
-0.41421356237309426
10
21.000000000000007
20
7.0000000000000009
42
-0.41421356237309653
10
25
20
10.999999999999996
42
-0.41421356237309581
0
LWPOLYLINE
5
107
100
AcDbEntity
8
0
100
AcDbPolyline
90
4
70
1
43
0.0
10
37.500000000000007
20
7.0000000000000018
42
-0.4142135623730947
10
33.500000000000007
20
3.0000000000000018
42
-0.41421356237309515
10
29.500000000000011
20
7.0000000000000018
42
-0.41421356237309503
10
33.500000000000007
20
11
42
-0.41421356237309503
0
LWPOLYLINE
5
108
100
AcDbEntity
8
0
100
AcDbPolyline
90
8
70
1
43
0.0
10
43.000000000000007
20
55
42
-0.41421356237309764
10
46.000000000000007
20
52.000000000000014
10
46
20
15
42
-0.4142135623730957
10
43.000000000000007
20
12.000000000000002
10
7.0000000000000018
20
12.000000000000011
42
-0.41421356237309614
10
4
20
15
10
4.0000000000000018
20
52.000000000000014
42
-0.41421356237309614
10
7.0000000000000018
20
55
0
ENDSEC
0
SECTION
2
OBJECTS
0
DICTIONARY
5
C
100
AcDbDictionary
3
ACAD_GROUP
350
D
3
ACAD_MLINESTYLE
350
17
0
DICTIONARY
5
D
100
AcDbDictionary
0
DICTIONARY
5
1A
330
C
100
AcDbDictionary
0
DICTIONARY
5
17
100
AcDbDictionary
0
ENDSEC
0
EOF
