0
SECTION
2
HEADER
9
$INSUNITS
70
4
9
$ACADVER
1
AC1014
9
$HANDSEED
5
FFFF
0
ENDSEC
0
SECTION
2
TABLES
0
TABLE
2
VPORT
5
8
100
AcDbSymbolTable
0
ENDTAB
0
TABLE
2
LTYPE
5
5
100
AcDbSymbolTable
0
LTYPE
5
14
100
AcDbSymbolTableRecord
100
AcDbLinetypeTableRecord
2
BYBLOCK
70
0
0
LTYPE
5
15
100
AcDbSymbolTableRecord
100
AcDbLinetypeTableRecord
2
BYLAYER
70
0
0
ENDTAB
0
TABLE
2
LAYER
5
2
100
AcDbSymbolTable
70
2
0
LAYER
5
50
100
AcDbSymbolTableRecord
100
AcDbLayerTableRecord
2
0
70
0
6
CONTINUOUS
0
ENDTAB
0
TABLE
2
STYLE
5
3
100
AcDbSymbolTable
70
1
0
STYLE
5
11
100
AcDbSymbolTableRecord
100
AcDbTextStyleTableRecord
2
STANDARD
70
0
0
ENDTAB
0
TABLE
2
VIEW
5
6
100
AcDbSymbolTable
70
0
0
ENDTAB
0
TABLE
2
UCS
5
7
100
AcDbSymbolTable
70
0
0
ENDTAB
0
TABLE
2
APPID
5
9
100
AcDbSymbolTable
70
2
0
APPID
5
12
100
AcDbSymbolTableRecord
100
AcDbRegAppTableRecord
2
ACAD
70
0
0
ENDTAB
0
TABLE
2
DIMSTYLE
5
A
100
AcDbSymbolTable
70
1
0
ENDTAB
0
TABLE
2
BLOCK_RECORD
5
1
100
AcDbSymbolTable
70
1
0
BLOCK_RECORD
5
1F
100
AcDbSymbolTableRecord
100
AcDbBlockTableRecord
2
*MODEL_SPACE
0
BLOCK_RECORD
5
1B
100
AcDbSymbolTableRecord
100
AcDbBlockTableRecord
2
*PAPER_SPACE
0
ENDTAB
0
ENDSEC
0
SECTION
2
BLOCKS
0
BLOCK
5
20
100
AcDbEntity
100
AcDbBlockBegin
2
*MODEL_SPACE
0
ENDBLK
5
21
100
AcDbEntity
100
AcDbBlockEnd
0
BLOCK
5
1C
100
AcDbEntity
100
AcDbBlockBegin
2
*PAPER_SPACE
0
ENDBLK
5
1D
100
AcDbEntity
100
AcDbBlockEnd
0
ENDSEC
0
SECTION
2
ENTITIES
0
LWPOLYLINE
5
100
100
AcDbEntity
8
0
100
AcDbPolyline
90
8
70
1
43
0.0
10
3.4999999999999964
20
2.9999999783724096
10
3.4999999999999987
20
56.999999993244543
42
-0.41421355946963145
10
4.4999999900869678
20
57.999999993244558
10
4.9999999900869385
20
57.999999998201083
42
-0.41421356527655862
10
6.0000000000000009
20
56.999999998201069
10
5.9999999999999964
20
2.9999999783724132
42
-0.41421356237309503
10
4.9999999999999956
20
1.9999999783724121
10
4.4999999999999973
20
1.9999999783724121
42
-0.41421356237309503
0
CIRCLE
5
101
100
AcDbEntity
8
0
100
AcDbCircle
10
48
20
6.0000000000000009
30
0
40
1.5000000000000024
210
0
220
0
230
1
0
LINE
5
102
100
AcDbEntity
8
0
100
AcDbLine
10
1.5000000000000009
20
2.9999999783724145
30
0
11
1.4999999999999973
21
56.999999998380979
31
0
0
CIRCLE
5
103
100
AcDbEntity
8
0
100
AcDbCircle
10
14.000000000000004
20
54
30
0
40
1.4999999999999989
210
0
220
0
230
1
0
LINE
5
104
100
AcDbEntity
8
0
100
AcDbLine
10
60.500000000000014
20
57.00000008108568
30
0
11
60.5
21
2.9999999779929718
31
0
0
LINE
5
105
100
AcDbEntity
8
0
100
AcDbLine
10
55.000000000000007
20
62
30
0
11
7.0000000012499992
21
62
31
0
0
LINE
5
106
100
AcDbEntity
8
0
100
AcDbLine
10
6.0000000025000011
20
61.000049999970834
30
0
11
5.9999999975000042
21
60.99994999996678
31
0
0
LINE
5
107
100
AcDbEntity
8
0
100
AcDbLine
10
56.000000000000007
20
-1.0000000216275848
30
0
11
56.000000000000007
21
-1.0499999999999996
31
0
0
LINE
5
108
100
AcDbEntity
8
0
100
AcDbLine
10
55.050000000000011
20
-1.9999999999999969
30
0
11
7.0000000012500019
21
-1.9999999999999996
31
0
0
LINE
5
109
100
AcDbEntity
8
0
100
AcDbLine
10
6.0000000025000038
20
-1.0000500000041375
30
0
11
5.9999999975000033
21
-0.99994999999592071
31
0
0
LINE
5
110
100
AcDbEntity
8
0
100
AcDbLine
10
4.5000000010793455
20
59.999999998380972
30
0
11
4.9999999983896135
21
59.999999998201083
31
0
0
LINE
5
111
100
AcDbEntity
8
0
100
AcDbLine
10
57.000207964832342
20
60.00000008029663
30
0
11
57.499999995263749
21
60.00000008108568
31
0
0
LINE
5
112
100
AcDbEntity
8
0
100
AcDbLine
10
57.499999998861711
20
-2.1817304629578877e-08
30
0
11
57.00000000037943
21
-2.1627588609051865e-08
31
0
0
LINE
5
113
100
AcDbEntity
8
0
100
AcDbLine
10
5.0000000000000044
20
-2.1627588093591418e-08
30
0
11
4.5000000000000036
21
-2.1627590859236278e-08
31
0
0
LINE
5
114
100
AcDbEntity
8
0
100
AcDbLine
10
17.500000000000004
20
60.000000000000036
30
0
11
52.5
21
60.000000000000036
31
0
0
LINE
5
115
100
AcDbEntity
8
0
100
AcDbLine
10
53.5
20
59.000000000000043
30
0
11
53.5
21
9.4999999999999929
31
0
0
LINE
5
116
100
AcDbEntity
8
0
100
AcDbLine
10
44.504133580096379
20
3.1363800445660672e-14
30
0
11
10
21
3.4139358007223564e-14
31
0
0
LINE
5
117
100
AcDbEntity
8
0
100
AcDbLine
10
8.5
20
1.5000000000000335
30
0
11
8.5
21
50.501698585292864
31
0
0
LINE
5
118
100
AcDbEntity
8
0
100
AcDbLine
10
14.092141419960329
20
51.501698585292857
30
0
11
9.5
21
51.501698585292857
31
0
0
LINE
5
119
100
AcDbEntity
8
0
100
AcDbLine
10
16.500000000000007
20
53.999999999999993
30
0
11
16.500000000000007
21
59.000000000000043
31
0
0
LINE
5
120
100
AcDbEntity
8
0
100
AcDbLine
10
48.000000000000007
20
8.4999999999999947
30
0
11
52.5
21
8.4999999999999947
31
0
0
LINE
5
121
100
AcDbEntity
8
0
100
AcDbLine
10
45.504133580096379
20
5.8562960891365048
30
0
11
45.504133580096379
21
1.0000000000000338
31
0
0
ARC
5
122
100
AcDbEntity
8
0
100
AcDbCircle
10
4.9999999987493968
20
60.999999998201076
30
0
40
0.99999999999999645
210
0
220
0
230
1
100
AcDbArc
50
269.99999997938596
51
359.99713531217623
0
ARC
5
123
100
AcDbEntity
8
0
100
AcDbCircle
10
7.0000000012499992
20
61.000000000000007
30
0
40
0.99999999999999645
210
0
220
-0
230
1
100
AcDbArc
50
90
51
179.99713521268663
0
ARC
5
124
100
AcDbEntity
8
0
100
AcDbCircle
10
55.000000000000007
20
61.000000000000007
30
0
40
0.99999999999999645
210
0
220
-0
230
1
100
AcDbArc
50
0
51
90
0
ARC
5
125
100
AcDbEntity
8
0
100
AcDbCircle
10
14.000000000000004
20
54
30
0
40
2.5000000000000009
210
0
220
0
230
1
100
AcDbArc
50
267.88779581764214
51
360
0
ARC
5
126
100
AcDbEntity
8
0
100
AcDbCircle
10
17.5
20
59.000000000000043
30
0
40
0.99999999999999645
210
0
220
-0
230
1
100
AcDbArc
50
89.999999999999801
51
180
0
ARC
5
127
100
AcDbEntity
8
0
100
AcDbCircle
10
9.4999999999999964
20
50.501698585292864
30
0
40
0.99999999999999645
210
0
220
-0
230
1
100
AcDbArc
50
89.999999999999801
51
180
0
ARC
5
128
100
AcDbEntity
8
0
100
AcDbCircle
10
52.5
20
59.000000000000043
30
0
40
0.99999999999999645
210
0
220
-0
230
1
100
AcDbArc
50
0
51
90
0
LWPOLYLINE
5
129
100
AcDbEntity
8
0
100
AcDbPolyline
90
8
70
1
43
0.0
10
57.000000000000774
20
57.999999990278297
10
57.500000000000533
20
57.999999990278042
42
-0.41421356237294676
10
58.500000000000021
20
56.999999990278042
10
58.500000000000014
20
3.000000000000238
42
-0.41421356237309503
10
57.500000000000014
20
2.000000000000242
10
57.000000000000014
20
2.0000000000002394
42
-0.41421356237309503
10
56.000000000000014
20
3.000000000000238
10
56.00000000000027
20
56.999999990278305
42
-0.4142135623732433
0
ARC
5
130
100
AcDbEntity
8
0
100
AcDbCircle
10
5.0000000000000044
20
-1.0000000203643351
30
0
40
0.99999999875101719
210
0
220
-0
230
1
100
AcDbArc
50
0.0028659559931141962
51
90
0
ARC
5
131
100
AcDbEntity
8
0
100
AcDbCircle
10
7.0000000012500019
20
-1.0000000000000002
30
0
40
0.99999999999999878
210
0
220
0
230
1
100
AcDbArc
50
180.00286478909447
51
270
0
ARC
5
132
100
AcDbEntity
8
0
100
AcDbCircle
10
57
20
-1.0000000216275848
30
0
40
0.99999999999999634
210
0
220
-0
230
1
100
AcDbArc
50
89.999999978260277
51
180
0
ARC
5
133
100
AcDbEntity
8
0
100
AcDbCircle
10
55.050000000000011
20
-1.0499999999999994
30
0
40
0.9499999999999974
210
-0
220
0
230
1
100
AcDbArc
50
270
51
360
0
ARC
5
134
100
AcDbEntity
8
0
100
AcDbCircle
10
48.000000000000007
20
5.9999999999999929
30
0
40
2.5000000000000009
210
0
220
-0
230
1
100
AcDbArc
50
90
51
183.29526740397398
0
ARC
5
135
100
AcDbEntity
8
0
100
AcDbCircle
10
44.504133580096379
20
1.0000000000000278
30
0
40
0.99999999999999645
210
-0
220
0
230
1
100
AcDbArc
50
-90
51
0
0
ARC
5
136
100
AcDbEntity
8
0
100
AcDbCircle
10
52.5
20
9.4999999999999893
30
0
40
0.99999999999999423
210
0
220
0
230
1
100
AcDbArc
50
-90
51
0
0
LINE
5
137
100
AcDbEntity
8
0
100
AcDbLine
10
56.000000000000007
20
61.000000000223949
30
0
11
56.00041588325827
21
60.979608904204383
31
0
0
ARC
5
138
100
AcDbEntity
8
0
100
AcDbCircle
10
57.000207963253587
20
61.000000079647421
30
0
40
1.000000001628655
210
0
220
0
230
1
100
AcDbArc
50
181.16840927060403
51
270.00000009045601
0
LWPOLYLINE
5
139
100
AcDbEntity
8
0
100
AcDbPolyline
90
4
70
1
43
0.0
10
45
20
51.001698585292857
10
9.0000000000000018
20
51.001698585292857
10
9.0000000000000036
20
0.50169858529285349
10
45
20
0.50169858529285349
0
ARC
5
140
100
AcDbEntity
8
0
100
AcDbCircle
10
4.4999999999999956
20
56.999999998380979
30
0
40
2.9999999999999982
210
0
220
-0
230
1
100
AcDbArc
50
89.999999979385933
51
180
0
ARC
5
141
100
AcDbEntity
8
0
100
AcDbCircle
10
4.5000000000000036
20
2.9999999783724145
30
0
40
3.0000000000000027
210
0
220
0
230
1
100
AcDbArc
50
180
51
270
0
ARC
5
142
100
AcDbEntity
8
0
100
AcDbCircle
10
57.500000000000014
20
57.00000008108568
30
0
40
2.9999999999999982
210
0
220
0
230
1
100
AcDbArc
50
0
51
90.000000090455998
0
ARC
5
143
100
AcDbEntity
8
0
100
AcDbCircle
10
57.500000000000007
20
2.9999999779929718
30
0
40
2.9999999998102767
210
0
220
0
230
1
100
AcDbArc
50
-90.000000021739879
51
0
0
ARC
5
144
100
AcDbEntity
8
0
100
AcDbCircle
10
9.9999999999999982
20
1.5000000000000313
30
0
40
1.4999999999999969
210
0
220
-0
230
1
100
AcDbArc
50
180
51
270.00000000000006
0
ENDSEC
0
SECTION
2
OBJECTS
0
DICTIONARY
5
C
100
AcDbDictionary
3
ACAD_GROUP
350
D
3
ACAD_MLINESTYLE
350
17
0
DICTIONARY
5
D
100
AcDbDictionary
0
DICTIONARY
5
1A
330
C
100
AcDbDictionary
0
DICTIONARY
5
17
100
AcDbDictionary
0
ENDSEC
0
EOF
